<?xml version="1.0" encoding="utf-8"?>
<!-- Generator: Adobe Illustrator 26.5.1, SVG Export Plug-In . SVG Version: 6.00 Build 0)  -->
<svg version="1.1" id="Layer_1" xmlns="http://www.w3.org/2000/svg" xmlns:xlink="http://www.w3.org/1999/xlink" x="0px" y="0px"
	 viewBox="0 0 878.5639 175.5781" style="enable-background:new 0 0 878.5639 175.5781;" xml:space="preserve">
<polygon style="fill:#574A4A;" points="878.5639,49.6424 673.452,49.6424 -4,53.745 -4,178.8411 878.5639,176.5003 "/>
<circle style="fill:#FFFFFF;stroke:#000000;stroke-miterlimit:10;" cx="121.2053" cy="67.7198" r="1.976"/>
<circle style="fill:#FFFFFF;stroke:#000000;stroke-miterlimit:10;" cx="184.5864" cy="88.4349" r="1.4957"/>
<circle style="fill:#FFFFFF;stroke:#000000;stroke-miterlimit:10;" cx="155.8608" cy="68.7078" r="0.988"/>
<circle style="fill:#FFFFFF;stroke:#000000;stroke-miterlimit:10;" cx="104.5273" cy="78.3776" r="1.2645"/>
<circle style="fill:#FFFFFF;stroke:#000000;stroke-miterlimit:10;" cx="129.3778" cy="78.3507" r="1.2376"/>
<circle style="fill:#FFFFFF;stroke:#000000;stroke-miterlimit:10;" cx="145.0956" cy="77.7319" r="0.6188"/>
<circle style="fill:#FFFFFF;stroke:#000000;stroke-miterlimit:10;" cx="325.9093" cy="67.9684" r="0.7394"/>
<circle style="fill:#FFFFFF;stroke:#000000;stroke-miterlimit:10;" cx="243.236" cy="67.9684" r="0.7394"/>
<circle style="fill:#FFFFFF;stroke:#000000;stroke-miterlimit:10;" cx="243.236" cy="95.5867" r="0.7394"/>
<circle style="fill:#FFFFFF;stroke:#000000;stroke-miterlimit:10;" cx="289.44" cy="114.9958" r="0.9038"/>
<circle style="fill:#FFFFFF;stroke:#000000;stroke-miterlimit:10;" cx="358.6721" cy="142.5954" r="3.3042"/>
<circle style="fill:#FFFFFF;stroke:#000000;stroke-miterlimit:10;" cx="326.9026" cy="112.5091" r="1.7327"/>
<circle style="fill:#FFFFFF;stroke:#000000;stroke-miterlimit:10;" cx="330.1309" cy="88.4349" r="1.4957"/>
<circle style="fill:#FFFFFF;stroke:#000000;stroke-miterlimit:10;" cx="344.2346" cy="89.1827" r="0.7479"/>
<circle style="fill:#FFFFFF;stroke:#000000;stroke-miterlimit:10;" cx="357.0568" cy="93.1584" r="1.6889"/>
<circle style="fill:#FFFFFF;stroke:#000000;stroke-miterlimit:10;" cx="380.4054" cy="100.1766" r="1.7764"/>
<circle style="fill:#FFFFFF;stroke:#000000;stroke-miterlimit:10;" cx="417.1742" cy="111.6917" r="2.4004"/>
<circle style="fill:#FFFFFF;stroke:#000000;stroke-miterlimit:10;" cx="433.8452" cy="114.8112" r="2.2158"/>
<circle style="fill:#FFFFFF;stroke:#000000;stroke-miterlimit:10;" cx="469.119" cy="123.4936" r="0.3847"/>
<circle style="fill:#FFFFFF;stroke:#000000;stroke-miterlimit:10;" cx="517.9163" cy="125.5357" r="1.6574"/>
<circle style="fill:#FFFFFF;stroke:#000000;stroke-miterlimit:10;" cx="530.7392" cy="122.2072" r="2.104"/>
<circle style="fill:#FFFFFF;stroke:#000000;stroke-miterlimit:10;" cx="547.6946" cy="110.0338" r="0.7426"/>
<circle style="fill:#FFFFFF;stroke:#000000;stroke-miterlimit:10;" cx="545.1035" cy="88.061" r="1.1218"/>
<circle style="fill:#FFFFFF;stroke:#000000;stroke-miterlimit:10;" cx="544.5427" cy="72.2284" r="0.5609"/>
<circle style="fill:#FFFFFF;stroke:#000000;stroke-miterlimit:10;" cx="610.8103" cy="67.2258" r="1.482"/>
<circle style="fill:#FFFFFF;stroke:#000000;stroke-miterlimit:10;" cx="675.0956" cy="73.2101" r="0.4208"/>
<circle style="fill:#FFFFFF;stroke:#000000;stroke-miterlimit:10;" cx="689.2644" cy="75.4234" r="2.2134"/>
<circle style="fill:#FFFFFF;stroke:#000000;stroke-miterlimit:10;" cx="705.098" cy="77.8333" r="0.7202"/>
<circle style="fill:#FFFFFF;stroke:#000000;stroke-miterlimit:10;" cx="723.3156" cy="76.2319" r="2.6011"/>
<circle style="fill:#FFFFFF;stroke:#000000;stroke-miterlimit:10;" cx="738.5927" cy="72.7835" r="1.0026"/>
<circle style="fill:#FFFFFF;stroke:#000000;stroke-miterlimit:10;" cx="758.0694" cy="75.9559" r="2.2235"/>
<circle style="fill:#FFFFFF;stroke:#000000;stroke-miterlimit:10;" cx="387.7553" cy="83.9093" r="2.7228"/>
<circle style="fill:#FFFFFF;stroke:#000000;stroke-miterlimit:10;" cx="814.9759" cy="83.9093" r="1.7043"/>
<circle style="fill:#FFFFFF;stroke:#000000;stroke-miterlimit:10;" cx="792.7271" cy="104.1779" r="0.7426"/>
<circle style="fill:#FFFFFF;stroke:#000000;stroke-miterlimit:10;" cx="737.1325" cy="105.3781" r="0.4576"/>
<circle style="fill:#FFFFFF;stroke:#000000;stroke-miterlimit:10;" cx="411.8035" cy="137.9688" r="3.7305"/>
<circle style="fill:#FFFFFF;stroke:#000000;stroke-miterlimit:10;" cx="692.1038" cy="146.0559" r="0.626"/>
<circle style="fill:#FFFFFF;stroke:#000000;stroke-miterlimit:10;" cx="716.1352" cy="153.722" r="1.3614"/>
<path style="fill:#FFFFFF;stroke:#000000;stroke-miterlimit:10;" d="M725.9167,143.5646c0,1.0302,0,1.8653,0,1.8653
	S725.9167,144.5948,725.9167,143.5646c0-1.0302,0-1.8653,0-1.8653S725.9167,142.5345,725.9167,143.5646z"/>
<circle style="fill:#FFFFFF;stroke:#000000;stroke-miterlimit:10;" cx="680.9678" cy="136.1654" r="2.4752"/>
<circle style="fill:#FFFFFF;stroke:#000000;stroke-miterlimit:10;" cx="654.1302" cy="88.6719" r="1.7327"/>
<circle style="fill:#FFFFFF;stroke:#000000;stroke-miterlimit:10;" cx="460.4493" cy="146.0559" r="0.626"/>
<circle style="fill:#FFFFFF;stroke:#000000;stroke-miterlimit:10;" cx="473.6847" cy="149.8853" r="0.9901"/>
<circle style="fill:#FFFFFF;stroke:#000000;stroke-miterlimit:10;" cx="476.4783" cy="136.1654" r="1.8035"/>
<circle style="fill:#FFFFFF;stroke:#000000;stroke-miterlimit:10;" cx="480.3238" cy="125.151" r="2.0421"/>
<circle style="fill:#FFFFFF;stroke:#000000;stroke-miterlimit:10;" cx="171.5748" cy="115.9191" r="1.1079"/>
<circle style="fill:#FFFFFF;stroke:#000000;stroke-miterlimit:10;" cx="182.6017" cy="120.1869" r="1.9847"/>
<circle style="fill:#FFFFFF;stroke:#000000;stroke-miterlimit:10;" cx="306.3175" cy="129.1201" r="3.0545"/>
<circle style="fill:#FFFFFF;stroke:#000000;stroke-miterlimit:10;" cx="56.483" cy="88.3395" r="2.1693"/>
<circle style="fill:#FFFFFF;stroke:#000000;stroke-miterlimit:10;" cx="72.9421" cy="96.5737" r="0.2475"/>
<circle style="fill:#FFFFFF;stroke:#000000;stroke-miterlimit:10;" cx="345.9704" cy="68.7078" r="0.988"/>
<circle style="fill:#FFFFFF;stroke:#000000;stroke-miterlimit:10;" cx="364.2704" cy="68.7057" r="2.9619"/>
<circle style="fill:#FFFFFF;stroke:#000000;stroke-miterlimit:10;" cx="379.5171" cy="62.1328" r="0.8882"/>
<circle style="fill:#FFFFFF;stroke:#000000;stroke-miterlimit:10;" cx="394.2512" cy="58.995" r="2.2496"/>
<circle style="fill:#FFFFFF;stroke:#000000;stroke-miterlimit:10;" cx="412.9283" cy="57.8702" r="1.1248"/>
<path style="fill:#4A494A;stroke:#000000;stroke-miterlimit:10;" d="M372.7825,124.818c3.8144-1.4259,6.7001-0.9357,8.3408-0.4317
	c1.488,0.4571,2.3593,1.0507,2.9789,2.1584c1.0535,1.8835,1.2932,5.0997,0.2979,6.4752c-0.8774,1.2126-2.4807,0.6712-4.4683,0
	c-2.0208-0.6824-2.1789-1.3872-3.2767-1.2951c-2.1579,0.1811-3.0998,3.0342-3.8725,2.5901
	C372.2112,133.9867,371.8856,131.9437,372.7825,124.818"/>
<path style="fill:#4A494A;stroke:#000000;stroke-miterlimit:10;" d="M120.8994,141.7483c6.339-1.6352,11.1348-1.073,13.8614-0.4951
	c2.473,0.5242,3.9209,1.2049,4.9505,2.4753c1.7507,2.16,2.1492,5.8483,0.4951,7.4258c-1.4582,1.3906-4.1226,0.7697-7.4258,0
	c-3.3583-0.7826-3.6211-1.5908-5.4456-1.4852c-3.5861,0.2076-5.1514,3.4796-6.4356,2.9703
	C119.9499,152.2628,119.4088,149.9199,120.8994,141.7483"/>
<polygon style="fill:#4A494A;stroke:#000000;stroke-miterlimit:10;" points="630.4916,58.6238 630.4916,51.0771 633.0288,47.3105 
	641.9088,44.2529 646.983,44.2529 652.6915,50.6739 655.8629,58.6238 653.3258,61.9872 "/>
<path style="fill:#4A494A;stroke:#000000;stroke-miterlimit:10;" d="M602.5763,129.3047c6.339-1.6352,11.1348-1.073,13.8614-0.4951
	c2.473,0.5242,3.9209,1.2049,4.9505,2.4753c1.7507,2.16,2.1492,5.8483,0.4951,7.4258c-1.4582,1.3906-4.1226,0.7697-7.4258,0
	c-3.3583-0.7826-3.6211-1.5908-5.4456-1.4852c-3.5861,0.2076-5.1514,3.4796-6.4356,2.9703
	C601.6268,139.8192,601.0856,137.4763,602.5763,129.3047"/>
<path style="fill:#4A494A;stroke:#000000;stroke-miterlimit:10;" d="M181.1742,57.6851c3.8143-1.4259,6.7001-0.9356,8.3408-0.4317
	c1.488,0.4571,2.3593,1.0507,2.9789,2.1584c1.0535,1.8835,1.2932,5.0997,0.2979,6.4752c-0.8774,1.2126-2.4807,0.6712-4.4683,0
	c-2.0208-0.6824-2.1789-1.3872-3.2767-1.2951c-2.1579,0.1811-3.0998,3.0342-3.8725,2.5901
	C180.6028,66.8537,180.2772,64.8107,181.1742,57.6851"/>
<path style="fill:#4A494A;stroke:#000000;stroke-miterlimit:10;" d="M290.6371,46.9965c8.2375-2.0295,14.4697-1.3318,18.0129-0.6145
	c3.2136,0.6506,5.0952,1.4955,6.4332,3.0723c2.2751,2.681,2.7928,7.2589,0.6433,9.2167c-1.8949,1.726-5.3573,0.9554-9.6498,0
	c-4.3642-0.9713-4.7056-1.9745-7.0765-1.8434c-4.6602,0.2577-6.6943,4.3188-8.3631,3.6867
	C289.4032,60.047,288.7,57.139,290.6371,46.9965"/>
<path style="fill:#4A494A;stroke:#000000;stroke-miterlimit:10;" d="M785.2992,137.4411
	c8.2375-2.0295,14.4697-1.3318,18.0129-0.6145c3.2136,0.6506,5.0952,1.4955,6.4332,3.0722c2.2751,2.681,2.7928,7.2589,0.6434,9.2168
	c-1.895,1.726-5.3574,0.9554-9.6498,0c-4.3641-0.9713-4.7056-1.9745-7.0765-1.8434c-4.6602,0.2577-6.6943,4.3188-8.363,3.6867
	C784.0652,150.4915,783.3621,147.5836,785.2992,137.4411"/>
<path style="fill:#4A494A;stroke:#000000;stroke-miterlimit:10;" d="M724.7838,124.5011
	c-8.0216-2.7621-12.8793-6.7281-15.4672-9.2523c-2.3472-2.2894-3.4698-4.0197-3.7389-6.07c-0.4576-3.4863,1.59-7.6133,4.4578-8.0926
	c2.5281-0.4225,5.0192,2.1026,8.1075,5.2332c3.1399,3.1828,2.8828,4.2108,4.9459,5.3864c4.0551,2.3107,7.9665,0.0018,9.0258,1.4379
	C732.8979,114.2056,731.9117,117.0302,724.7838,124.5011"/>
<path style="fill:#FFFFFF;stroke:#000000;stroke-miterlimit:10;" d="M314.3987,144.2151c3.8144-0.8176,6.7002-0.5365,8.3408-0.2475
	c1.488,0.2621,2.3593,0.6025,2.9789,1.2376c1.0535,1.08,1.2932,2.9242,0.2979,3.7129c-0.8774,0.6953-2.4807,0.3849-4.4683,0
	c-2.0208-0.3913-2.1789-0.7954-3.2768-0.7426c-2.1579,0.1038-3.0998,1.7398-3.8725,1.4852
	C313.8273,149.4723,313.5017,148.3009,314.3987,144.2151"/>
<path style="fill:#FFFFFF;stroke:#000000;stroke-miterlimit:10;" d="M286.9832,105.5986c2.1925-1.2239,3.8513-0.8031,4.7943-0.3705
	c0.8553,0.3923,1.3561,0.9018,1.7122,1.8526c0.6055,1.6167,0.7433,4.3773,0.1712,5.5579c-0.5044,1.0408-1.4259,0.5761-2.5684,0
	c-1.1616-0.5857-1.2524-1.1907-1.8835-1.1116c-1.2404,0.1554-1.7818,2.6043-2.2259,2.2232
	C286.6548,113.4684,286.4676,111.7148,286.9832,105.5986"/>
<path style="fill:#4A494A;stroke:#000000;stroke-miterlimit:10;" d="M432.5555,91.0082c6.339-1.6352,11.1348-1.073,13.8614-0.4951
	c2.473,0.5242,3.9209,1.2049,4.9505,2.4753c1.7507,2.16,2.1492,5.8483,0.4951,7.4258c-1.4582,1.3906-4.1226,0.7697-7.4258,0
	c-3.3583-0.7826-3.6211-1.5908-5.4456-1.4852c-3.5861,0.2076-5.1514,3.4796-6.4356,2.9703
	C431.606,101.5227,431.0648,99.1798,432.5555,91.0082"/>
</svg>
